<?xml version="1.0" encoding="UTF-8" standalone="no"?>
<!-- Created with Inkscape (http://www.inkscape.org/) -->

<svg
   width="292.10681mm"
   height="292.10684mm"
   viewBox="0 0 292.10681 292.10684"
   version="1.1"
   id="svg1"
   xml:space="preserve"
   xmlns="http://www.w3.org/2000/svg"
   xmlns:svg="http://www.w3.org/2000/svg"><defs
     id="defs1" /><g
     id="layer1"
     transform="translate(29.347123,3.5553674)"><circle
       style="fill:#ffffff;fill-opacity:1;stroke:#020202;stroke-width:4.49843;stroke-dasharray:none;stroke-opacity:1"
       id="path5"
       cx="116.70629"
       cy="142.49805"
       r="143.8042" /><path
       style="fill:#000000;stroke-width:1.5922"
       d="m 47.468493,252.08651 c -4.594172,-1.20359 -7.840724,-3.13007 -11.698155,-6.9416 -2.706287,-2.67408 -3.772962,-4.10972 -5.164526,-6.95093 -0.964601,-1.96944 -2.024352,-4.71822 -2.355034,-6.10839 -0.654314,-2.75083 -0.920433,-17.79832 -0.748747,-42.3375 l 0.09282,-13.26996 3.469984,-2.57012 c 4.32493,-3.20335 8.894248,-5.72133 13.300716,-7.32947 3.966702,-1.44768 10.952335,-2.9491 13.721149,-2.9491 h 1.934853 v 19.52789 19.52788 l -2.917604,0.2446 c -7.130524,0.59781 -13.49931,6.34998 -15.205873,13.7337 -1.788196,7.73685 2.393788,16.38451 9.651433,19.9576 l 2.766951,1.36222 69.42925,0.11146 c 48.24681,0.0774 69.68349,-0.0247 70.26255,-0.33453 0.76728,-0.41062 0.58812,-0.68643 -2.26174,-3.48159 -1.70227,-1.66959 -3.70982,-4.12564 -4.46124,-5.45792 l -1.36621,-2.42228 h -26.98586 c -26.33614,0 -27.019,-0.0206 -28.36221,-0.85062 -2.69268,-1.66417 -3.36062,-5.75 -1.39196,-8.51474 1.78689,-2.50946 0.80671,-2.43016 30.04083,-2.43016 h 26.78189 l 0.42523,-1.15849 c 1.07378,-2.92543 2.50818,-5.08436 5.15025,-7.75166 l 2.85809,-2.88537 h -60.4215 c -53.09809,0 -60.450662,-0.076 -60.662027,-0.62673 -0.132311,-0.34471 -0.220709,-37.40581 -0.196524,-82.35801 l 0.04394,-81.731287 h 56.323451 c 54.34778,0 56.43541,0.02866 59.51624,0.816593 7.28652,1.863569 13.2773,6.674694 16.55605,13.295915 2.83159,5.71816 2.69774,2.094324 2.70584,73.266229 0.004,45.86605 -0.12929,65.20363 -0.46676,67.14186 -0.65839,3.78076 -2.0411,7.09964 -4.74136,11.38052 -2.92904,4.64352 -3.94832,7.03713 -4.49091,10.54588 -0.97104,6.27948 0.89884,11.57769 5.54895,15.72274 3.22975,2.87894 4.01002,4.73595 3.61167,8.59554 -0.44261,4.28864 -4.00141,8.54182 -9.43816,11.27973 -5.86185,2.95198 -1.69324,2.80457 -78.5701,2.77878 -66.756158,-0.0222 -69.320199,-0.0517 -72.285681,-0.82868 z m 140.068687,-67.98937 1.18199,-1.01702 v -9.91804 c 0,-9.41544 -0.0427,-9.95178 -0.84254,-10.58339 -0.60239,-0.47567 -1.44296,-0.61256 -2.94889,-0.48022 -8.78345,0.77189 -17.63939,8.8395 -19.78111,18.02028 -0.61223,2.62441 -0.40173,3.88274 0.78177,4.67298 0.25493,0.17022 4.95526,0.3124 10.44516,0.31596 9.94947,0.007 9.98544,0.003 11.16362,-1.01055 z m -50.10362,-5.72103 c 3.85121,-2.34811 4.04657,-8.32543 0.34581,-10.58214 -1.22597,-0.7476 -2.51949,-0.79132 -23.45715,-0.79281 l -22.15963,-0.002 -1.425286,0.96049 c -1.80864,1.21884 -2.477091,2.54805 -2.482934,4.93727 -0.0064,2.28136 1.11863,4.30572 3.04256,5.47876 1.323083,0.80669 2.16131,0.83712 23.06831,0.83712 20.90701,0 21.74524,-0.0304 23.06832,-0.83712 z m 50.49107,-101.748353 1.0629,-1.062886 -0.13422,-9.457948 c -0.12627,-8.900699 -0.18547,-9.509168 -1.00435,-10.327283 -0.81956,-0.818793 -1.4686,-0.880902 -11.16362,-1.068297 -5.6614,-0.109429 -10.49923,-0.05486 -10.75073,0.12123 -0.97174,0.68044 -1.30681,1.91691 -0.98554,3.636652 1.27568,6.82835 6.37651,13.336297 13.12147,16.74114 2.52973,1.277004 6.12452,2.403822 7.82417,2.452551 0.53185,0.01528 1.4453,-0.450576 2.02988,-1.035163 z m -50.61597,-5.67741 c 4.06958,-2.060426 4.2037,-8.416602 0.22637,-10.728018 -1.43073,-0.831466 -2.11761,-0.856868 -23.16979,-0.856868 -20.090071,0 -21.798021,0.05606 -23.083086,0.757672 -3.532351,1.928556 -4.117929,7.38184 -1.077678,10.036017 1.719508,1.501149 3.009089,1.579889 24.582044,1.500949 17.96496,-0.06574 21.46819,-0.176139 22.52214,-0.709752 z M 57.200904,225.5807 c -1.581688,-0.97175 -2.465038,-2.24428 -2.854012,-4.11138 -0.395358,-1.89786 1.010727,-4.9169 2.802473,-6.01724 1.365896,-0.83881 1.900462,-0.85589 23.441652,-0.74846 l 22.043893,0.11002 1.39516,1.52264 c 2.586,2.82228 2.25374,6.7821 -0.75368,8.9819 -1.16023,0.84865 -1.71628,0.8724 -22.959135,0.97971 -21.000067,0.10603 -21.81774,0.0807 -23.116351,-0.71712 z M 27.475186,140.29971 c -0.131992,-11.14936 -0.11416,-26.80871 0.03965,-34.79852 l 0.279716,-14.526964 3.370155,-2.420359 c 4.006204,-2.877172 9.694613,-5.474594 14.818937,-6.766578 2.044285,-0.515421 3.858689,-1.1267 4.032015,-1.358398 0.17331,-0.231698 0.268095,-3.549188 0.210631,-7.3722 l -0.104442,-6.950932 -1.895717,0.116978 c -4.774853,0.294631 -12.814473,3.440138 -17.926666,7.013819 l -2.715491,1.898263 v -6.427047 c 0,-6.791797 0.460304,-9.62913 2.199062,-13.554994 1.096784,-2.476392 3.507242,-6.119053 5.466854,-8.261429 4.838923,-5.290246 13.233428,-8.799958 21.047738,-8.799958 h 3.724019 v 55.607463 55.607456 h -3.085284 c -8.966104,0 -19.947608,3.79235 -26.671964,9.21092 l -2.549059,2.05406 z"
       id="path1" /><path
       style="fill:#000000;stroke:#ffffff;stroke-width:4.465;stroke-dasharray:none;stroke-opacity:1"
       d="m 101.31757,142.22406 c 0,0 8.18556,4.60438 14.83632,0 6.65077,-4.60437 6.13917,-34.78862 6.13917,-34.78862"
       id="path2" /><path
       style="fill:#000000;stroke:#ffffff;stroke-width:4.465;stroke-dasharray:none;stroke-opacity:1"
       d="m 139.94914,107.77887 c 0,0 -1.53401,40.02172 9.56992,35.99606"
       id="path3" /><rect
       style="fill:#000000;stroke:#ffffff;stroke-width:4.465;stroke-dasharray:none;stroke-opacity:1"
       id="rect5"
       width="41.059074"
       height="0.18087697"
       x="109.79233"
       y="105.99391"
       ry="0.023694148" /></g></svg>
