<?xml version="1.0" encoding="UTF-8" standalone="no"?>
<!-- Created with Inkscape (http://www.inkscape.org/) -->

<svg
   width="422.422mm"
   height="408.11536mm"
   viewBox="0 0 422.422 408.11536"
   version="1.1"
   id="svg1"
   xml:space="preserve"
   xmlns="http://www.w3.org/2000/svg"
   xmlns:svg="http://www.w3.org/2000/svg"><defs
     id="defs1" /><g
     id="layer2"
     transform="translate(11.887223,139.28883)"><rect
       style="fill:#17181c;fill-opacity:1;stroke:none;stroke-width:37.7707;stroke-dasharray:none"
       id="rect1"
       width="422.42203"
       height="408.11536"
       x="-11.887222"
       y="-139.28883" /></g><g
     id="layer1"
     transform="translate(11.887223,139.28883)"><path
       style="fill:#ffffff;fill-opacity:1;stroke-width:2.08148"
       d="m 45.778542,216.17002 v -9.36229 H 36.41626 c -5.874376,0 -9.3623,-0.20524 -9.3623,-0.55073 0,-0.33565 2.507193,-0.55072 6.420134,-0.55072 h 6.420115 l 2.942166,-2.26985 2.942167,-2.26985 v -18.06836 -18.06834 l -4.818834,1.32351 c -2.650354,0.72794 -7.420979,2.05743 -10.601402,2.95446 -3.595742,1.01416 -5.98044,1.43628 -6.305784,1.11621 -0.33043,-0.32511 -0.33043,-0.68937 0,-0.98874 0.287771,-0.26071 5.293825,-1.78979 11.124617,-3.39797 l 10.601403,-2.92402 V 32.41037 -98.292622 h -1.344309 c -0.739357,0 -1.463024,-0.19206 -1.608106,-0.426834 -0.256807,-0.415512 2.770251,-12.241184 3.258365,-12.729294 0.134609,-0.1347 0.376886,-0.11263 0.538351,0.0487 0.530545,0.53055 3.499942,12.210642 3.219593,12.664263 -0.150747,0.243697 -0.878784,0.443086 -1.618142,0.443086 H 46.879985 V 32.287563 c 0,104.227767 0.138773,130.530707 0.688399,130.334977 0.378622,-0.13489 12.284025,-3.44504 26.45646,-7.35601 l 25.768065,-7.11077 -9.79711,-0.34642 c -7.187393,-0.25413 -11.65817,-0.72076 -16.783814,-1.75174 -7.450348,-1.49858 -9.259584,-2.16212 -9.259584,-3.39596 0,-1.36124 0.85658,-1.39463 6.127553,-0.23874 15.313265,3.35808 29.51691,3.58096 44.341796,0.69582 3.72972,-0.72589 4.58352,-1.09103 5.07545,-2.17072 0.59067,-1.29637 2.76602,-2.22691 4.06967,-1.74082 0.92386,0.34444 117.22203,-164.892043 116.55611,-165.602966 -0.799,-0.852995 -0.55824,-3.966517 0.36608,-4.733624 0.47087,-0.390797 1.06248,-1.10266 1.31458,-1.581917 0.25214,-0.479257 1.00572,-8.058317 1.67462,-16.842351 1.46778,-19.274971 1.35555,-18.569824 2.92046,-18.347274 1.15265,0.163872 1.21058,0.400469 1.0544,4.303855 -0.091,2.271732 -0.66531,10.040789 -1.27645,17.264551 -0.61116,7.223762 -1.02519,13.220098 -0.92016,13.325137 0.10516,0.105155 8.78175,-12.000905 19.28153,-26.902175 18.05024,-25.616887 19.03216,-27.134387 18.02015,-27.848802 -1.35867,-0.959109 -1.36044,-1.933282 -0.006,-2.894636 0.58585,-0.415551 2.8235,-2.214626 4.97263,-3.99789 2.14914,-1.783284 4.04521,-3.104657 4.21348,-2.936353 0.29829,0.29827 -3.8412,11.792747 -4.47519,12.426761 -0.17539,0.175385 -0.83467,-0.0038 -1.46508,-0.396899 -0.94424,-0.589707 -1.27031,-0.586023 -1.8509,0.02092 -1.58415,1.655832 -37.87753,53.648337 -37.80418,54.156741 0.0438,0.302913 0.23386,1.343613 0.42248,2.312739 0.27653,1.420674 0.0818,2.007426 -1.00543,3.028976 -1.2085,1.13553 -1.447,2.12394 -2.2989,9.527807 -1.86315,16.19254501 -5.75339,35.704583 -8.82863,44.28136 -0.47849,1.334593 -0.7946,2.501919 -0.70242,2.594102 0.0923,0.0923 11.79175,-11.458499 25.99901,-25.6681976 24.78882,-24.7929814 25.79369,-25.8774884 24.89618,-26.8692184 -0.51439,-0.568408 -0.93528,-1.177036 -0.93528,-1.352497 0,-0.493975 11.61324,-7.164488 11.92699,-6.850753 0.27031,0.270312 -5.46583,10.605235 -6.45036,11.621737 -0.30046,0.310282 -0.94109,0.105538 -1.63488,-0.522201 -1.13482,-1.027018 -1.27921,-0.894021 -27.51509,25.3375566 C 235.54618,30.52838 233.66488,32.543099 233.95145,33.97592 c 0.34918,1.745865 -1.02374,4.310743 -2.30742,4.310743 -0.48895,0 -2.18048,2.883852 -4.32021,7.365509 -3.87873,8.123961 -8.18613,15.688035 -13.15913,23.108308 -1.79336,2.675866 -3.17827,4.929272 -3.07757,5.007601 0.10074,0.07829 18.70149,-14.122045 41.33509,-31.556368 l 41.15203,-31.698767 -0.85561,-1.3057725 c -0.47056,-0.7181949 -0.75655,-1.4048437 -0.63553,-1.525886 0.56547,-0.5654337 12.17671,-5.1823136 12.42041,-4.938617 0.3464,0.3463945 -7.57887,10.7614875 -8.18884,10.7614875 -0.24536,0 -0.79771,-0.502014 -1.22748,-1.115612 -0.74748,-1.06718 -2.64466,0.317535 -43.72268,31.912088 -41.57399,31.976044 -42.93368,33.079472 -42.70242,34.655171 0.28327,1.929905 -1.39461,3.932189 -3.31216,3.952529 -0.90872,0.01151 -2.48739,1.583011 -5.92027,5.900297 -14.96426,18.819419 -31.807,33.885649 -48.71584,43.577499 -2.71338,1.55523 -4.79569,2.82772 -4.62738,2.82772 0.26153,0 154.07455,-42.579911 162.26625,-44.920032 2.6665,-0.761715 2.89598,-0.955482 2.75364,-2.324942 l -0.15524,-1.493975 6.52403,-0.451645 c 6.4881,-0.449112 8.07013,-0.321545 8.07013,0.650651 0,0.592816 -11.04425,7.235735 -12.02976,7.235735 -0.36528,0 -0.89788,-0.614844 -1.18358,-1.366274 -0.2857,-0.751468 -0.83717,-1.255268 -1.22549,-1.119565 -0.38834,0.135664 -39.24286,10.911907 -86.34341,23.947047 -47.10058,13.0352 -88.49858,24.59463 -91.9956,25.68767 -5.37263,1.67925 -6.49659,2.22837 -7.2508,3.54253 -0.6845,1.19265 -1.36911,1.59573 -2.93661,1.72892 -2.03095,0.17251 -2.17726,0.36307 -22.866246,29.77502 L 78.891885,205.70632 H 221.2187 363.54546 v -1.34431 c 0,-0.73936 0.19213,-1.46302 0.42685,-1.60811 0.41553,-0.25682 12.24119,2.77026 12.72931,3.25836 0.13451,0.13471 0.11264,0.37689 -0.0487,0.53836 -0.53051,0.53055 -12.21064,3.49994 -12.66424,3.21958 -0.2437,-0.15083 -0.44309,-0.87877 -0.44309,-1.61813 v -1.3443 l -142.77483,0.0115 -142.774867,0.0115 -1.652165,2.46494 c -0.908689,1.35572 -1.838048,2.46548 -2.06521,2.46613 -0.672339,0.002 -0.489728,-0.49518 0.97125,-2.64395 l 1.384297,-2.036 -8.607683,-0.15198 c -6.356526,-0.11225 -8.830432,0.032 -9.459359,0.55074 -0.677333,0.55889 -0.899039,0.56182 -1.083324,0.0134 -0.163391,-0.48561 -1.759614,-0.68841 -5.417655,-0.68841 h -5.185977 v 9.36226 c 0,5.87438 -0.205231,9.36231 -0.550721,9.36231 -0.345537,0 -0.550707,-3.48793 -0.550707,-9.36231 z m 0,-11.84053 c 0,-1.70269 -0.383416,-1.70006 -2.478255,0.0173 l -1.652165,1.35424 2.06521,0.002 c 1.836467,0.002 2.06521,-0.14967 2.06521,-1.37407 z m 41.030863,-26.78711 c 21.603085,-21.6639 27.004445,-27.3371 23.403695,-24.58154 -2.57464,1.97028 -17.81588,13.67901 -33.869454,26.01939 -29.086144,22.35858 -29.188892,22.44461 -29.357657,24.5816 l -0.169417,2.14445 h 5.953963 5.953962 z m 9.692078,1.31617 c 10.372797,-14.76625 19.465527,-27.65315 20.206047,-28.63759 0.74053,-0.9844 1.25413,-1.78983 1.14137,-1.78983 -0.11281,0 -13.09016,12.88691 -28.838631,28.63758 l -28.633616,28.63757 h 8.632593 8.632562 z m -13.359159,-6.40847 c 18.844876,-14.50469 34.161526,-26.47403 34.037036,-26.59852 -0.40241,-0.40241 -6.67832,1.23383 -38.76886,10.10772 l -31.527211,8.71816 -0.0015,17.79204 c -0.0015,17.0844 0.03811,17.76341 0.997836,17.07241 0.549724,-0.39581 16.417997,-12.5871 35.262843,-27.09181 z m 41.844866,-29.48191 c 0.23125,-1.55024 -0.81227,-2.79787 -2.34014,-2.79787 -1.63283,0 -2.52095,1.01512 -2.52095,2.88151 0,3.0123 4.41058,2.93641 4.86109,-0.0837 z m 13.31275,-7.53098 c 15.99436,-7.27565 27.4818,-15.54462 42.73161,-30.75948 8.41917,-8.399855 17.73351,-18.822873 17.2162,-19.265384 -0.10711,-0.09153 -15.43564,11.590939 -34.06385,25.960884 -18.6282,14.36996 -34.48901,26.60019 -35.24625,27.17835 -1.35776,1.03665 -1.33492,1.03711 1.65217,0.033 1.66593,-0.55996 5.13549,-1.9763 7.71012,-3.14746 z M 227.06092,34.984747 c -0.18901,-1.981234 -0.0407,-2.274227 1.65531,-3.274995 1.68439,-0.993802 2.03174,-1.667863 3.62594,-7.036441 2.22965,-7.508561 4.11703,-15.6688278 5.5766,-24.11118773 1.29265,-7.47680337 3.46717,-24.58988827 3.16318,-24.89385627 -0.15888,-0.158883 -61.50544,86.775962 -105.97858,150.183243 l -7.91855,11.28981 50.04181,-49.990344 50.04179,-49.990307 z m -54.89154,68.976463 c 27.84098,-21.420263 29.19665,-22.545527 29.36904,-24.377377 0.21791,-2.315406 1.47477,-3.848065 3.15556,-3.848065 1.32544,0 5.68439,-5.954103 12.04454,-16.452111 3.88622,-6.414651 10.7131,-19.895601 10.0753,-19.895601 -0.0691,0 -21.93332,21.840396 -48.58765,48.53423 -45.01819,45.084844 -47.99276,48.177474 -41.85375,43.514984 3.63477,-2.76055 19.74339,-15.12479 35.79696,-27.47606 z m 34.86075,-22.828388 c 0.90327,-0.903251 0.83179,-2.917451 -0.13202,-3.717256 -1.21144,-1.005411 -3.70161,-0.48818 -4.20071,0.87253 -0.89209,2.432054 2.51092,4.666444 4.33262,2.844726 z M 232.92882,35.02654 c 0.23127,-1.550218 -0.81227,-2.797867 -2.34012,-2.797867 -1.63284,0 -2.52095,1.01514 -2.52095,2.881491 0,3.012301 4.41056,2.936429 4.86107,-0.08366 z m 12.10117,-61.835343 c 1.54479,-1.544787 0.38095,-4.295623 -1.81738,-4.295623 -1.47619,0 -2.47826,1.002054 -2.47826,2.478241 0,1.476187 1.00207,2.478241 2.47826,2.478241 0.63609,0 1.45391,-0.297387 1.81738,-0.660859 z"
       id="path1" /><path
       d="m 125.48307,162.97395 c 0.1178,-0.45061 -0.12843,-0.65593 -0.79158,-0.65971 -1.09469,-0.006 -1.09182,-0.0541 0.35312,-5.84624 0.73193,-2.93401 1.34906,-5.31631 1.3714,-5.29396 0.0223,0.0223 0.36076,2.55709 0.75205,5.63279 0.87737,6.89619 0.80978,6.55452 1.29699,6.55452 0.32306,0 1.05062,-1.05363 4.22904,-6.1244 2.11133,-3.36839 3.85842,-6.02568 3.88243,-5.90506 0.024,0.1205 -0.57345,2.62072 -1.32759,5.55573 l -1.37118,5.33645 -0.97713,0.0885 c -1.08635,0.0984 -1.12089,0.1159 -1.20638,0.61137 -0.0583,0.33717 0.0491,0.35167 2.93751,0.39773 2.65194,0.0422 3.01067,0.0134 3.10865,-0.24088 0.18047,-0.47029 -0.22907,-0.7692 -1.05396,-0.7692 -0.55275,0 -0.76592,-0.0708 -0.76592,-0.25392 0,-0.32318 2.77098,-11.32368 2.8798,-11.4325 0.0445,-0.0445 0.53685,-0.1301 1.0939,-0.18978 0.87765,-0.0944 1.02027,-0.16137 1.06873,-0.50249 0.0553,-0.39007 0.0361,-0.39366 -2.09961,-0.39147 l -2.15548,0.002 -3.49931,5.5945 c -1.92463,3.07699 -3.53869,5.59549 -3.58679,5.5967 -0.048,7.3e-4 -0.38862,-2.37952 -0.7567,-5.2905 -0.36804,-2.91099 -0.70799,-5.4305 -0.75538,-5.5989 -0.0762,-0.27037 -0.33828,-0.30618 -2.24108,-0.30618 -1.98629,0 -2.16182,0.0265 -2.24372,0.3398 -0.12197,0.46649 -0.0108,0.535 0.87005,0.535 0.49806,0 0.79681,0.0863 0.85894,0.2483 0.091,0.23723 -1.66809,7.67682 -2.38578,10.08984 -0.3527,1.18592 -0.73347,1.55953 -1.58946,1.55953 -0.55098,0 -1.03004,0.32835 -1.03004,0.70601 0,0.3258 0.13175,0.34378 2.51657,0.34378 2.45063,0 2.51927,-0.0115 2.61791,-0.38742 z"
       style="fill:#ffffff;fill-opacity:1;stroke-width:0.661287"
       id="path1-1" /><path
       d="m 284.49606,-27.939978 c 0,-0.317381 -0.12223,-0.366216 -0.91551,-0.366216 h -0.91553 v -4.577543 c 0,-4.916013 0.002,-4.906611 -0.92016,-4.26068 -0.2488,0.174233 -0.90571,0.407318 -1.45978,0.517941 -0.73169,0.146026 -1.0251,0.292417 -1.07194,0.534655 -0.0581,0.300496 0.0374,0.323023 0.96498,0.227329 l 1.02946,-0.106305 -0.0497,3.786507 -0.0497,3.786489 -0.86973,0.05584 c -0.72038,0.04624 -0.86973,0.116859 -0.86973,0.411982 0,0.33586 0.14622,0.356161 2.56344,0.356161 2.44136,0 2.5634,-0.01727 2.5634,-0.366197 z m -20.96514,-3.295833 c 0,-0.395038 -0.0923,-0.465403 -0.67268,-0.513739 -1.2669,-0.105346 -1.26859,-0.05872 0.22061,-6.088577 0.74416,-3.013222 1.40437,-5.417683 1.46709,-5.343173 0.0628,0.07445 0.42371,2.648502 0.80213,5.720039 0.82646,6.708161 0.82133,6.683197 1.37341,6.683197 0.35438,0 1.05949,-1.017386 4.46746,-6.445948 2.22568,-3.545286 4.06624,-6.426433 4.09013,-6.402524 0.0662,0.06601 -2.80959,11.416169 -2.94996,11.643248 -0.0674,0.108992 -0.45262,0.198181 -0.85614,0.198181 -0.91682,0 -1.44193,0.270638 -1.44193,0.743159 0,0.35125 0.11148,0.362322 3.15848,0.313985 l 3.15852,-0.05008 v -0.457747 c 0,-0.423111 -0.0729,-0.46193 -0.96128,-0.513106 -0.52873,-0.03051 -0.9613,-0.09306 -0.9613,-0.13931 0,-0.04605 0.67111,-2.76753 1.49129,-6.047398 1.65439,-6.61548 1.49942,-6.300401 3.09817,-6.300401 0.64881,0 0.7205,-0.04605 0.7205,-0.463388 v -0.463388 l -2.23345,0.05142 -2.23345,0.05143 -3.66311,5.838855 c -3.15157,5.02345 -3.68158,5.777797 -3.79524,5.401506 -0.0727,-0.240549 -0.44232,-2.89097 -0.82148,-5.889839 l -0.68938,-5.452491 -2.29973,0.05104 c -2.22771,0.04951 -2.30153,0.0639 -2.35817,0.462985 -0.0528,0.372338 0.0173,0.412231 0.73239,0.414764 0.43499,0.0015 0.88765,0.06447 1.00587,0.139502 0.15639,0.0994 -0.17826,1.707603 -1.22786,5.902216 -1.56467,6.2522 -1.63298,6.406343 -2.83943,6.406343 -0.7877,0 0.22905,1.085486 1.64464,1.057643 l 2.5739,-0.05066 z"
       style="fill:#ffffff;fill-opacity:1;stroke-width:0.692037"
       id="path1-6" /><path
       d="m 387.32583,214.92361 c 1.05711,-0.92815 1.219,-0.98112 1.49444,-0.48894 0.79126,1.41392 4.25678,2.02318 6.07873,1.06869 1.71695,-0.89947 3.97701,-3.87 3.97701,-5.22721 0,-0.99557 -1.31452,-0.55941 -1.79744,0.59644 -1.02727,2.45861 -3.19532,4.07829 -4.8898,3.65299 -1.59535,-0.40041 -1.63599,-1.26576 -0.31671,-6.74565 0.66437,-2.75953 1.41392,-5.34538 1.66568,-5.74629 0.71387,-1.1368 1.96035,-1.81623 2.89956,-1.58048 l 0.82579,0.20731 -0.79708,0.72509 c -1.15969,1.05497 -1.34473,2.02299 -0.54047,2.82728 0.88811,0.88809 1.82673,0.84405 2.80228,-0.13163 1.87272,-1.87271 0.32767,-5.0674 -2.45074,-5.0674 -1.48742,0 -3.0705,0.68176 -3.54283,1.52576 -0.27576,0.49276 -0.41106,0.45995 -1.34523,-0.32604 -2.69578,-2.26837 -6.6225,-1.28731 -8.61561,2.15253 -1.09712,1.89349 -1.18352,2.65367 -0.3157,2.77741 0.5199,0.0743 0.78018,-0.14391 1.03126,-0.86431 0.49523,-1.42056 2.56601,-3.55997 3.68331,-3.80539 1.4201,-0.31191 2.5773,0.53744 2.57338,1.88876 -0.004,1.48108 -2.15094,9.57413 -2.86286,10.79309 -0.64242,1.09996 -1.93911,1.73226 -2.84196,1.38577 -0.50645,-0.19417 -0.475,-0.30489 0.28781,-1.01184 1.85177,-1.71618 0.4375,-4.27775 -1.70023,-3.07946 -1.83105,1.02637 -2.07898,3.19018 -0.54166,4.72752 0.62244,0.62245 1.12812,0.78684 2.42021,0.78684 1.37196,0 1.82305,-0.16656 2.81886,-1.04091 z"
       style="fill:#ffffff;fill-opacity:1;stroke-width:1.23204"
       id="path1-5" /><path
       d="m 67.924168,-89.929224 c 1.982365,-0.58869 4.524686,-2.806272 5.560374,-4.850119 0.413382,-0.815731 1.612609,-4.950379 2.664952,-9.188087 2.032724,-8.18556 2.054514,-8.61324 0.438909,-8.61324 -0.628342,0 -1.702677,0.7111 -1.702677,1.12697 0,0.0798 -0.63558,2.63588 -1.412402,5.68038 -1.294919,5.07509 -1.501549,5.61911 -2.484541,6.541219 -1.810512,1.698411 -3.270414,1.718502 -4.16114,0.05737 -0.565551,-1.054739 -0.250058,-3.130599 1.038268,-6.831909 1.344895,-3.86376 1.370634,-4.77171 0.169341,-5.97296 -0.743275,-0.7433 -1.179572,-0.9134 -2.342669,-0.9134 -1.195215,0 -1.628007,0.1796 -2.642732,1.09629 -1.221356,1.1034 -2.724457,3.97388 -2.376077,4.53759 0.498811,0.80708 1.290401,0.21815 2.066239,-1.53725 0.834066,-1.88717 2.085357,-3.05693 2.925216,-2.73464 0.701538,0.26918 0.593705,0.96232 -0.778773,5.00524 -1.666058,4.90774 -1.712759,6.885847 -0.201545,8.534886 0.938888,1.024504 1.243685,1.158096 2.918409,1.279254 1.353669,0.09786 2.15053,-0.0096 2.885814,-0.390011 1.01488,-0.524811 1.015586,-0.524657 0.802363,0.200426 -1.013511,3.446599 -3.332208,5.885158 -5.587911,5.876753 -1.725236,-0.0038 -2.393089,-0.423686 -1.46937,-0.918064 1.647232,-0.881568 1.302587,-3.451799 -0.462866,-3.451799 -1.870843,0 -2.984888,2.664467 -1.813354,4.33707 1.068189,1.525061 3.244122,1.936505 5.966119,1.128181 z"
       style="fill:#ffffff;fill-opacity:1;stroke-width:1.18101"
       id="path1-0" /></g></svg>
