<?xml version="1.0" encoding="UTF-8" standalone="no"?>
<!-- Created with Inkscape (http://www.inkscape.org/) -->

<svg
   width="640.05951mm"
   height="618.3819mm"
   viewBox="0 0 640.05951 618.3819"
   version="1.1"
   id="svg1"
   xml:space="preserve"
   xmlns="http://www.w3.org/2000/svg"
   xmlns:svg="http://www.w3.org/2000/svg"><defs
     id="defs1" /><g
     id="layer2-9"
     transform="matrix(2.9074988,0,0,2.9074988,34.562085,-163.23091)"><rect
       style="fill:#17181c;fill-opacity:1;stroke:none;stroke-width:19.6838;stroke-dasharray:none"
       id="rect1"
       width="220.14095"
       height="212.68517"
       x="-11.887222"
       y="56.141357" /></g><g
     id="layer1"
     transform="translate(7.3687298,364.17223)"><path
       style="fill:#ffffff;fill-opacity:1;stroke-width:2.90751"
       d="M 94.480035,125.29103 V 88.72439 l -10.960401,11.3099 c -22.025203,22.72751 -28.739898,29.40787 -28.746701,28.5997 -0.003,-0.45399 8.913374,-10.01669 19.816,-21.25051 l 19.82295,-20.42508 0.03402,-10.625238 0.03402,-10.62527 H 76.727903 58.975905 l -4.774634,3.483677 c -2.626055,1.916047 -4.984209,3.483692 -5.240361,3.483692 -1.251738,0 -0.07821,-1.301037 3.456436,-3.832048 l 3.892093,-2.786981 -8.784281,-0.195154 C 35.194485,65.58718 36.156053,64.314237 48.693479,64.314237 H 58.64605 L 76.541181,51.250403 94.436315,38.186554 94.45665,-132.9905 94.47699,-304.16754 92.560949,-304.388 c -1.053794,-0.12123 -1.873768,-0.534 -1.822131,-0.91721 0.477092,-3.54041 4.113299,-15.66769 4.644613,-15.49057 0.55449,0.18483 4.604783,14.12112 4.653889,16.01312 0.009,0.28742 -0.927027,0.52255 -2.076652,0.52255 h -2.090187 v 170.35253 c 0,93.69383 0.179389,170.35242 0.398618,170.35242 0.219223,0 35.256451,-25.567768 77.860451,-56.817247 53.91016,-39.542328 77.39305,-57.153352 77.23561,-57.922834 -0.4893,-2.391446 0.65454,-4.506622 2.95751,-5.468837 3.19579,-1.3353 5.48125,-5.580877 66.93607,-124.346072 28.25624,-54.60683 51.7981,-99.73271 52.3153,-100.27976 4.0684,-4.30319 -3.32083,10.75223 -40.50588,82.52984 -54.99702,106.15978 -55.07916,106.32082 -52.77456,103.46875 1.07484,-1.33019 4.70766,-5.87155 8.0729,-10.0919 22.60684,-28.35135 51.63164,-54.07131 84.10888,-74.53207 4.79011,-3.01776 9.99185,-6.30145 11.55942,-7.29709 1.56759,-0.99564 20.94493,-20.54379 43.06079,-43.44034 22.11583,-22.89655 40.57397,-41.63008 41.01812,-41.63008 0.44412,0 -0.6137,1.48927 -2.35076,3.3095 -9.23773,9.68007 -63.13117,65.59911 -68.84766,71.43526 l -6.67308,6.81283 11.49616,-5.8948 c 19.06513,-9.77588 37.8996,-17.58963 58.17764,-24.13581 10.238,-3.30504 25.67426,-7.7466 30.10234,-8.66149 1.26781,-0.26194 2.40705,-1.01026 2.63592,-1.73145 0.59682,-1.8804 4.20238,-3.1897 6.23433,-2.26389 1.48043,0.67453 3.15589,-0.3713 17.79445,-11.10737 8.88806,-6.51861 16.34782,-11.66433 16.5772,-11.43494 0.5737,0.5737 0.91358,0.30361 -15.86336,12.60519 -11.79311,8.64721 -14.46109,10.88188 -12.54129,10.50442 7.94261,-1.56161 26.51601,-4.58204 32.92809,-5.3548 5.54331,-0.66806 7.70095,-0.69972 8.27917,-0.12146 1.99382,1.99381 -0.0261,2.6835 -13.43357,4.5843 -7.4198,1.052 -17.25292,2.65298 -21.8514,3.55773 -7.55905,1.48723 -8.61171,1.88164 -10.97639,4.11254 l -2.61553,2.46755 0.17704,85.22035 0.17704,85.220376 27.34694,0.182407 c 15.04084,0.100361 27.34668,0.100361 27.3464,0 -3.4e-4,-0.100361 -0.90164,-3.539779 -2.00293,-7.643386 -1.10126,-4.103609 -1.83254,-7.630842 -1.62511,-7.838294 0.20767,-0.207308 1.10878,-0.377187 2.00289,-0.377187 h 1.62574 v -72.112426 -72.11236 h -1.62574 c -0.89414,0 -1.79144,-0.16576 -1.99404,-0.36835 -0.20274,-0.20259 0.52701,-3.57305 1.62136,-7.48993 1.09437,-3.91687 1.9917,-7.19997 1.99408,-7.29577 0.002,-0.0958 -8.9313,-0.17418 -19.85267,-0.17418 -12.77354,0 -19.85704,-0.24854 -19.85704,-0.69674 0,-0.45122 8.5931,-0.69674 24.38582,-0.69674 15.79275,0 24.38583,0.24551 24.38583,0.69674 0,0.38321 -1.56766,0.69674 -3.48366,0.69674 -1.91605,0 -3.48373,0.2909 -3.48373,0.64646 0,0.35555 0.78306,3.56925 1.7401,7.14156 0.95707,3.57231 1.74087,6.73025 1.74183,7.01766 0.001,0.2874 -0.93881,0.52255 -2.08844,0.52255 h -2.09021 v 72.11236 72.11237 h 2.09021 c 1.14963,0 2.09024,0.290893 2.09024,0.646451 0,0.355559 -0.78306,3.569247 -1.74009,7.14157 -0.95708,3.572305 -1.74092,6.879606 -1.74185,7.349569 -10e-4,0.633819 3.10184,0.908233 12.01693,1.062674 l 12.01874,0.208114 -12.01874,0.156699 c -9.10325,0.118694 -12.01872,0.369061 -12.01872,1.032429 0,0.481724 0.77995,3.695407 1.73321,7.141568 2.19215,7.924931 2.18864,8.007573 -0.33972,8.007573 h -2.09021 V -7.1012177 48.986173 h 2.09021 c 1.14963,0 2.09024,0.237232 2.09024,0.527429 0,0.290181 -0.77995,3.347071 -1.73321,6.793206 -0.95324,3.446167 -1.73708,6.657682 -1.74184,7.136651 -0.006,0.679597 5.11939,0.87095 23.33206,0.87095 h 23.34073 v -1.700746 c 0,-0.935412 0.24306,-1.850897 0.53999,-2.034444 0.52569,-0.324892 15.48674,3.504747 16.10425,4.122244 0.17033,0.17033 0.14235,0.476826 -0.0616,0.681068 -0.67124,0.671213 -15.44812,4.427927 -16.02199,4.073237 -0.30829,-0.190461 -0.56056,-1.111765 -0.56056,-2.047177 v -1.700699 h -51.91793 -51.9179 l 0.0379,43.983868 c 0.0202,24.19111 -0.13124,44.15264 -0.33746,44.35896 -0.20655,0.20633 -0.3751,-1.4016 -0.3751,-3.57308 0,-2.43901 -0.29694,-3.94818 -0.77686,-3.94818 -0.42724,0 -3.72011,0.80187 -7.31749,1.78188 -3.59737,0.98003 -6.85343,1.58859 -7.23564,1.35236 -0.38223,-0.23639 -0.69497,-1.19486 -0.69497,-2.13025 v -1.70072 H 376.31093 272.14862 v 2.09021 c 0,1.14961 -0.29089,2.09024 -0.64645,2.09024 -0.35556,0 -3.56926,-0.78305 -7.14155,-1.74013 -3.57232,-0.95703 -6.73028,-1.74087 -7.01768,-1.74182 -0.28756,-9.9e-4 -0.52254,1.54742 -0.52254,3.4408 0,1.89343 -0.31355,3.63634 -0.69676,3.8732 -0.43257,0.26719 -0.69673,-1.0379 -0.69673,-3.44257 0,-2.63868 -0.27765,-3.87043 -0.8709,-3.86453 -0.47902,0.006 -3.69053,0.78857 -7.1367,1.74185 -3.44613,0.95326 -6.48227,1.7332 -6.7469,1.7332 -0.26458,0 -0.58038,-0.86223 -0.70164,-1.91606 l -0.22042,-1.91605 H 175.6501 111.55019 l -0.22038,1.91605 c -0.12125,1.05383 -0.43697,1.91606 -0.70161,1.91606 -0.26458,0 -3.30077,-0.77994 -6.74694,-1.7332 -3.44614,-0.95328 -6.657651,-1.73708 -7.13666,-1.74185 -0.644477,-0.006 -0.870911,1.98406 -0.870911,7.65544 0,4.64492 -0.274469,7.66413 -0.696754,7.66413 -0.455636,0 -0.696725,-12.65337 -0.696725,-36.56667 z m 9.231775,17.13697 7.48995,-2.01002 v 2.01065 2.01065 h 64.44826 64.44822 v -1.74185 c 0,-2.16956 0.39295,-2.16961 8.48477,-0.002 3.57231,0.95707 6.57349,1.74089 6.66929,1.74183 0.0957,0.001 0.17413,-17.71281 0.17413,-39.36393 V 65.708095 l -36.75292,0.0094 -36.75291,0.0094 -18.01423,34.828745 c -10.71614,20.71857 -18.40795,34.82874 -18.98611,34.82874 -0.53454,0 -0.95197,-0.39195 -0.92764,-0.87095 0.0233,-0.47902 7.94858,-16.07723 17.60941,-34.662717 l 17.56522,-33.791793 -31.30161,-0.181514 -31.3016,-0.181514 -10.31049,10.63245 -10.310514,10.632434 -0.0349,28.740424 c -0.02033,15.80725 0.04361,28.74016 0.139264,28.7398 0.09593,-3.1e-4 3.544647,-0.9051 7.66414,-2.01062 z m 160.75824,-0.0505 c 6.86601,-1.87508 7.67813,-1.84137 7.67813,0.3186 v 1.74186 h 104.16233 104.1623 v -1.74186 c 0,-2.20626 0.69242,-2.20615 8.93367,0.002 3.57234,0.95707 6.62923,1.7401 6.79321,1.7401 0.16407,0 0.2981,-17.71457 0.2981,-39.3657 V 65.707767 H 376.65885 256.81996 V 105.1204 c 0,37.21062 0.0679,39.39223 1.2193,39.04706 0.67062,-0.20117 3.56446,-1.006 6.43079,-1.78876 z m -158.52261,-67.36605 9.02883,-9.306166 h -9.55139 -9.551368 v 9.405949 c 0,5.173253 0.235214,9.361039 0.522562,9.306197 0.287261,-0.05506 4.585506,-4.287584 9.551366,-9.40598 z M 94.480035,52.077758 c 0,-9.484926 -0.191885,-12.115391 -0.854573,-11.70589 -0.469998,0.290463 -8.026994,5.795788 -16.793306,12.234039 L 60.893421,64.311765 h 16.793306 16.793308 z m 11.574605,7.721049 c -0.60022,-5.858733 -2.61971,-12.211201 -5.54242,-17.434276 -3.85886,-6.896102 -4.262538,-6.095589 -4.479901,8.883416 l -0.189582,13.063818 h 5.337123 5.33712 z M 171.12122,7.4537326 c 75.76938,-78.6056846 78.69644,-81.6754536 75.9444,-79.6469206 -1.34122,0.988637 -35.25382,25.851881 -75.3613,55.251632 l -72.922787,53.454097 3.023537,5.712946 c 3.16891,5.987641 4.84587,11.368969 5.63424,18.080054 l 0.47061,4.006224 4.25867,-0.05835 4.2587,-0.05835 z M 209.90736,6.8309137 C 239.92977,-51.017529 250.26527,-71.407232 249.77458,-71.818718 249.54955,-72.007384 162.4029,17.973868 128.03149,53.88409 l -9.99467,10.442129 31.1098,-0.181514 31.10984,-0.181514 z M 228.25371,61.39514 c 0,-11.913324 -9.11641,-27.873573 -20.23341,-35.422978 l -4.04295,-2.74553 -10.5058,20.260864 c -5.77819,11.143485 -10.50581,20.387613 -10.50581,20.542566 0,0.15486 10.18981,0.28175 22.64399,0.28175 h 22.64398 z m 27.11285,-66.2345911 -0.0599,-69.1512449 -3.44352,7.219001 c -10.16046,21.300215 -18.57252,48.366528 -22.87534,73.6026087 -1.1632,6.8222403 -3.52103,24.8987433 -3.52103,26.9943183 0,0.961942 -2.82394,0.544416 -3.21525,-0.475387 -0.52839,-1.376918 1.50532,-18.179445 3.6314,-30.002647 2.05572,-11.4318956 5.57051,-25.87162 8.55704,-35.154674 1.16581,-3.62365 2.01772,-6.690357 1.89316,-6.814934 -0.12451,-0.124513 -7.31648,13.491768 -15.98207,30.2584918 -11.92707,23.0773112 -15.52721,30.6127162 -14.81583,31.0108292 0.51688,0.289305 2.87996,1.984404 5.25136,3.766975 10.13169,7.616151 17.45912,20.665359 18.62044,33.160578 l 0.44026,4.737301 h 12.78961 12.78959 z m 240.96029,-2.4385908 -0.17726,-71.5898121 -117.2794,-0.167429 -117.27939,-0.167206 -2.38532,2.52919 -2.38533,2.529189 V -4.9161472 64.311797 H 376.66232 496.5045 Z m 55.6383,70.3705329 c -1.51708,-5.060065 -3.21201,-11.854336 -3.21201,-12.875656 0,-0.851038 0.53988,-1.233306 1.74182,-1.233306 h 1.74184 V -7.1039285 -63.191321 h -1.62571 c -0.89415,0 -1.79546,-0.169888 -2.00292,-0.377198 -0.20722,-0.207219 0.52384,-3.734681 1.62511,-7.838287 1.10128,-4.10363 2.00257,-7.543131 2.00293,-7.643388 3.1e-4,-0.100361 -12.30553,-0.100361 -27.34637,0 l -27.34694,0.182407 -0.17727,71.5898123 -0.17748,71.5898337 h 27.57139 c 25.9332,0 27.54965,-0.07242 27.2058,-1.21929 z M 258.44531,-77.865178 c 1.36021,-1.942046 0.68549,-4.053444 -1.46807,-4.593936 -2.1926,-0.550304 -3.91762,0.465875 -4.217,2.484102 -0.49438,3.332963 3.73018,4.900764 5.68507,2.109834 z m 44.76847,-6.731041 c -0.58956,-5.754296 -3.09237,-13.397868 -6.02164,-18.390041 -1.20971,-2.06165 -2.29007,-3.84624 -2.40085,-3.96574 -0.32381,-0.34934 -34.48764,24.988178 -34.48764,25.577646 0,0.294264 0.20901,0.744087 0.4645,0.999546 0.25556,0.255549 10.01827,0.464488 21.69508,0.464488 h 21.23059 z m 193.11258,-81.200711 0.17682,-85.53826 -1.62389,-0.7399 c -1.48451,-0.67639 -10.08137,5.46136 -100.15883,71.50885 -54.1942,39.73682 -98.62441,72.3286 -98.73381,72.42617 -0.10934,0.0977 0.88875,2.02136 2.21805,4.27507 3.07199,5.208176 5.13303,11.409406 6.12622,18.432462 l 0.78162,5.527136 95.5184,-0.176594 95.51838,-0.176818 z m -116.35161,-5.54268 c 60.64583,-44.48645 110.13462,-81.01495 109.97515,-81.17445 -0.40052,-0.4005 -19.1132,4.83573 -29.68249,8.30582 -23.85993,7.83367 -50.65335,19.70242 -71.55744,31.69797 l -7.80588,4.47932 -56.41015,58.39611 c -31.02558,32.11783 -57.45523,59.605817 -58.73258,61.084359 l -2.32237,2.688282 3.1353,-2.296488 c 1.72442,-1.263053 52.75461,-38.694473 113.40046,-83.180923 z m -58.68772,23.14898 c 27.13322,-28.16564 50.2999,-52.2763 51.48157,-53.57926 2.44017,-2.69075 2.06757,-2.5301 -5.16731,2.22775 -42.02773,27.63853 -80.79427,68.43452 -103.41852,108.832383 l -1.951,3.48369 4.8611,-4.877166 c 2.67359,-2.68243 27.06097,-27.921757 54.19416,-56.087397 z M 498.6338,-253.42256 c 2.0119,-1.07675 1.81687,-4.66873 -0.30601,-5.636 -3.51842,-1.60309 -6.27252,2.51192 -3.52208,5.26238 1.28391,1.2839 1.99715,1.35352 3.82809,0.37362 z M 80.691394,70.990439 c -66.635551,-555.895039 -66.635551,-555.895039 0,0 z M 592.47177,51.114987 c 0.33143,-0.228237 0.72712,-0.579799 0.87935,-0.780819 l 0.27678,-0.36553 0.88931,0.780819 0.88933,0.780835 1.27099,-0.0063 1.27099,-0.0063 0.97481,-0.549641 0.97483,-0.549672 0.79205,-1.17984 c 0.43561,-0.648876 0.79206,-1.441615 0.79206,-1.761564 v -0.581723 h -0.47602 -0.47599 l -0.46715,1.035758 c -0.25702,0.569679 -0.79328,1.341473 -1.1919,1.715137 l -0.72475,0.6793 -0.84863,0.137966 -0.8486,0.137653 -0.40798,-0.407953 -0.40797,-0.407984 v -0.849833 c 0,-0.997966 1.30912,-6.441989 1.82086,-7.572211 0.19425,-0.429101 0.63095,-0.962114 0.97037,-1.184533 l 0.61713,-0.404355 0.63511,0.15938 0.63509,0.15938 -0.63331,0.586948 -0.63334,0.586964 v 0.747986 0.74797 l 0.63193,0.28785 0.632,0.287851 0.64745,-0.362918 c 0.35613,-0.199831 0.7921,-0.663674 0.96878,-1.031238 l 0.32129,-0.668272 -0.27274,-0.826073 c -0.15001,-0.454348 -0.53737,-0.999577 -0.861,-1.211594 l -0.58838,-0.385537 h -1.09677 -1.09679 l -0.87094,0.764723 -0.87096,0.764692 -0.29513,-0.363497 c -0.16251,-0.200065 -0.56633,-0.54404 -0.89768,-0.764691 l -0.60261,-0.401227 h -1.20383 -1.20377 l -1.0586,0.62036 -1.0586,0.620376 -0.7274,1.268328 c -0.4001,0.697602 -0.72846,1.460308 -0.72971,1.69488 l -0.002,0.426489 h 0.48939 0.48939 l 0.3888,-0.971734 c 0.46317,-1.157503 1.72288,-2.330851 2.74304,-2.554896 l 0.73494,-0.161398 0.50172,0.268657 0.50171,0.268642 v 0.980494 c 0,1.030956 -1.25544,6.321621 -1.82154,7.676514 -0.18196,0.435874 -0.61366,0.977632 -0.959,1.203883 l -0.6278,0.411409 -0.61742,-0.154859 -0.61739,-0.154859 0.64608,-0.555742 0.64609,-0.55571 V 48.48525 47.786741 l -0.45698,-0.334512 -0.45694,-0.334496 -0.60927,0.143128 c -0.33508,0.07852 -0.80117,0.369926 -1.03573,0.647155 l -0.42647,0.503997 0.009,0.886874 c 0.0109,1.446698 0.8891,2.207308 2.55792,2.219931 l 0.98148,0.0094 z"
       id="path1" /><path
       d="m 207.81895,55.615589 2.25162,-1.155235 0.12937,0.388634 c 0.0713,0.213706 0.50914,0.768227 0.97309,1.232179 l 0.84348,0.843499 h 1.4225 1.42253 L 215.755,56.03119 c 0.49144,-0.491404 0.89348,-1.110372 0.89348,-1.375494 v -0.481988 h -0.60057 -0.60058 l -0.30793,0.575357 c -0.16922,0.316445 -0.54881,0.667803 -0.84325,0.780803 l -0.53534,0.20565 -0.39015,-0.533544 -0.39012,-0.533561 0.009,-1.69915 0.009,-1.699119 1.20158,-1.808538 c 0.66087,-0.994697 1.57191,-2.82385 2.02453,-4.064789 l 0.82291,-2.256331 -0.33146,-0.33143 c -0.4966,-0.496614 -1.1846,-0.09855 -1.41476,0.818392 -0.11216,0.446824 -0.63297,1.771997 -1.15739,2.94486 l -0.95351,2.132475 -0.25267,-0.398474 c -0.13891,-0.21929 -0.25788,-0.879897 -0.264,-1.468284 -0.0233,-2.145443 -1.8055,-4.743168 -3.76222,-5.482503 -0.47327,-0.178824 -1.65485,-0.325095 -2.62572,-0.325095 h -1.76526 l -1.87031,0.934646 -1.87031,0.934583 -1.37155,1.525458 -1.37155,1.525489 -0.62773,1.67783 -0.62776,1.677814 v 1.526677 c 0,2.560199 1.25075,4.772231 3.20944,5.676077 l 0.917,0.423157 2.33013,-0.0804 2.33011,-0.0804 z m -6.36095,-0.27942 c -0.36942,-0.178604 -0.90184,-0.80957 -1.18314,-1.402399 l -0.51152,-1.077899 0.3444,-2.085344 c 0.48102,-2.912512 1.45404,-5.338108 2.69036,-6.706579 l 1.05308,-1.165621 1.06954,-0.352954 1.06961,-0.353017 1.03138,0.193355 1.03138,0.193371 0.6996,1.132005 0.69964,1.132006 0.11809,4.038464 0.1181,4.038417 -1.48686,0.943155 c -2.49862,1.584899 -5.2622,2.18849 -6.74345,1.472821 z"
       style="fill:#ffffff;fill-opacity:1;stroke-width:1.68396"
       id="path1-4" /><path
       d="m 314.21923,-89.463317 0.35415,-0.275041 0.35572,-1.869496 c 0.19559,-1.028209 0.40004,-2.078511 0.45422,-2.333965 l 0.0985,-0.464473 1.4056,-0.112813 1.40559,-0.112812 1.34425,-0.716467 1.34425,-0.716465 1.00796,-1.077636 c 1.22777,-1.31256 2.06648,-3.073955 2.23328,-4.690085 l 0.12467,-1.20847 -0.38577,-1.01018 -0.38581,-1.01019 -0.68953,-0.42045 -0.6895,-0.42045 -0.9565,-8.2e-4 c -2.52134,-0.002 -4.46898,2.32254 -6.08011,7.257207 -0.3357,1.028236 -0.64833,1.937121 -0.69471,2.019781 -0.0465,0.08258 -0.51246,0.0058 -1.0357,-0.173867 l -0.95132,-0.324158 -0.71168,-0.734288 -0.71169,-0.73426 -0.1192,-0.889143 -0.11919,-0.889142 0.46018,-1.51504 c 0.25292,-0.83326 0.7599,-1.92883 1.12631,-2.43465 0.76804,-1.06025 0.8269,-1.36333 0.26459,-1.36333 -0.59092,0 -1.23822,0.7952 -2.05895,2.52932 l -0.72864,1.53958 v 1.904734 1.904703 l 0.66866,0.954531 0.6687,0.954504 1.31741,0.659825 1.31745,0.6598 -0.74258,2.371356 -0.74257,2.371357 0.26806,0.322922 c 0.32802,0.395214 1.10625,0.418798 1.58395,0.04805 z m 1.79182,-7.811834 c 0.21303,-1.607351 0.70439,-3.086569 1.45927,-4.394569 l 0.66626,-1.15439 0.9145,-0.60514 0.91453,-0.60511 0.98861,0.0233 0.98869,0.0233 0.51188,0.59511 0.5119,0.59514 v 1.018 1.01797 l -0.45481,0.939562 c -0.8538,1.763659 -3.07178,3.182836 -5.46024,3.493736 l -1.18635,0.15439 z"
       style="fill:#ffffff;fill-opacity:1;stroke-width:1.2117"
       id="path1-44" /><path
       d="m 117.07891,49.892006 0.35416,-0.275055 0.3557,-1.869496 c 0.19569,-1.028203 0.40004,-2.078508 0.45424,-2.333964 l 0.0986,-0.464468 1.4056,-0.112938 1.4056,-0.112937 1.34423,-0.716451 1.34425,-0.716483 1.00797,-1.077632 c 1.22775,-1.312566 2.06648,-3.073941 2.23328,-4.690077 l 0.12474,-1.208482 -0.3858,-1.010167 -0.3858,-1.010183 -0.68951,-0.420451 -0.68951,-0.420466 -0.95648,-8.13e-4 c -2.52136,-0.0016 -4.469,2.322545 -6.08014,7.25719 -0.33569,1.02825 -0.64831,1.937133 -0.69471,2.019803 -0.0465,0.08244 -0.51245,0.0063 -1.03568,-0.173912 l -0.95134,-0.324172 -0.71167,-0.734283 -0.71169,-0.734268 -0.11921,-0.889142 -0.11921,-0.889143 0.46016,-1.515024 c 0.25296,-0.833252 0.75994,-1.928843 1.12634,-2.434654 0.76804,-1.060269 0.82689,-1.36334 0.26458,-1.36334 -0.59092,0 -1.23821,0.79521 -2.05894,2.529321 l -0.72865,1.539583 v 1.904738 1.90469 l 0.66867,0.954543 0.66869,0.954512 1.31742,0.65981 1.31744,0.65981 -0.74257,2.371349 -0.74258,2.371349 0.26807,0.322952 c 0.32803,0.39522 1.10625,0.418793 1.58395,0.04802 z m 1.79183,-7.811837 c 0.21312,-1.607345 0.7044,-3.08658 1.45927,-4.394562 l 0.66626,-1.15439 0.91449,-0.605139 0.91453,-0.605125 0.98863,0.02331 0.98867,0.02331 0.51189,0.595098 0.5119,0.595144 v 1.017989 1.017988 l -0.45482,0.939543 c -0.85379,1.763675 -3.07178,3.182842 -5.46023,3.493734 l -1.18634,0.15439 z"
       style="fill:#ffffff;fill-opacity:1;stroke-width:1.2117"
       id="path1-44-5" /><path
       d="m 225.27104,-84.109266 0.15907,-0.608334 -0.33309,-0.21169 c -0.18323,-0.116238 -0.66428,-0.213477 -1.06904,-0.215936 -0.40476,-0.0022 -0.91578,-0.183971 -1.13558,-0.403887 l -0.39961,-0.399596 2.08971,-8.376948 c 1.14937,-4.607253 2.11844,-8.348183 2.15351,-8.313093 0.035,0.0349 0.56652,4.015402 1.18098,8.845194 0.61447,4.829821 1.18623,9.121491 1.27057,9.537024 l 0.15345,0.755556 h 0.61271 0.61271 l 6.02814,-9.617111 c 3.31548,-5.289438 6.05892,-9.462193 6.09662,-9.272803 0.0377,0.18927 -0.90045,4.115278 -2.08472,8.724217 l -2.1532,8.379859 -1.53435,0.139045 c -1.7059,0.154687 -1.76013,0.181735 -1.89439,0.960069 l -0.0948,0.549499 4.7076,0.07511 4.70758,0.07488 0.17391,-0.453267 0.17391,-0.45331 -0.31313,-0.377309 -0.31313,-0.37731 h -1.20274 -1.20274 v -0.3987 c 0,-0.507451 4.35133,-17.781623 4.52218,-17.952493 0.0699,-0.0701 0.84302,-0.20411 1.71774,-0.29822 l 1.59046,-0.17096 0.0879,-0.61822 0.0879,-0.61817 -3.3848,0.003 -3.38477,0.002 -5.49501,8.78506 c -3.02221,4.831769 -5.55678,8.786615 -5.63235,8.788513 -0.0756,0.0015 -0.61026,-3.736588 -1.18823,-8.30773 -0.57797,-4.571103 -1.11175,-8.527513 -1.18619,-8.791953 l -0.1353,-0.47909 h -3.38382 -3.3838 l -0.13953,0.53358 c -0.19157,0.73257 -0.0166,0.84018 1.36622,0.84018 h 1.1992 l 0.14954,0.38989 c 0.14298,0.37251 -2.61938,12.054984 -3.74638,15.844117 l -0.53824,1.809646 -0.70153,0.319658 c -0.38585,0.175923 -0.95112,0.319635 -1.25616,0.319635 -0.30506,0 -0.7938,0.127861 -1.08608,0.284363 l -0.53143,0.28436 v 0.539821 0.539842 h 3.95182 3.95182 z"
       style="fill:#ffffff;fill-opacity:1;stroke-width:1.51365"
       id="path1-7" /><path
       d="m 504.24964,-265.7738 v -0.41578 h -1.03945 -1.03942 v -5.19728 -5.19729 h -0.26547 c -0.14625,0 -0.49669,0.16189 -0.77916,0.35974 -0.28233,0.19785 -1.02833,0.46249 -1.6574,0.58807 l -1.14382,0.22836 -0.0734,0.37871 -0.0734,0.37871 1.16881,-0.12062 1.16883,-0.12065 -0.0562,4.29915 -0.0562,4.29916 -0.98747,0.0633 -0.98747,0.0633 v 0.4044 0.40439 h 2.91044 2.91048 z m -23.80355,-3.74208 v -0.51972 l -0.76375,-0.0636 -0.76379,-0.0636 -0.26108,-0.31447 -0.26109,-0.31447 1.53624,-6.22036 c 0.84493,-3.4212 1.59448,-6.15116 1.66572,-6.06658 0.0713,0.0845 0.48105,3.00708 0.91071,6.49446 0.42965,3.48738 0.84882,6.62135 0.93143,6.96436 l 0.15048,0.62367 h 0.47774 0.47772 l 4.59457,-7.31867 c 2.52702,-4.02526 4.61676,-7.29647 4.6439,-7.26934 0.0751,0.075 -3.19004,12.96177 -3.34936,13.21961 -0.0767,0.12374 -0.51391,0.22501 -0.97204,0.22501 -0.45812,0 -1.01391,0.0969 -1.23508,0.21517 l -0.40212,0.21523 v 0.41336 0.41337 l 3.58612,-0.0569 3.58614,-0.0569 v -0.51972 -0.51972 l -1.09143,-0.0629 c -0.60029,-0.0346 -1.09143,-0.10572 -1.09143,-0.15822 0,-0.0525 0.76195,-3.14221 1.69319,-6.86614 l 1.6932,-6.77076 0.5032,-0.19131 c 0.27679,-0.10525 0.87133,-0.19132 1.32122,-0.19132 h 0.81803 v -0.52612 -0.52613 l -2.5358,0.0584 -2.53582,0.0584 -4.15907,6.62937 -4.1591,6.62937 -0.15001,-0.49658 c -0.0824,-0.2731 -0.50221,-3.28238 -0.9327,-6.68725 l -0.78276,-6.1907 -2.61101,0.0578 -2.61105,0.0578 -0.0666,0.46776 -0.0666,0.46775 0.89799,0.004 c 0.49388,0.002 1.00782,0.0731 1.14205,0.15842 l 0.24394,0.15527 -1.63819,6.54607 -1.63824,6.54606 -0.44792,0.36381 -0.44796,0.36381 h -0.68971 -0.68979 l -0.32668,0.32668 c -0.81484,0.81485 -0.40592,0.93882 2.88376,0.87415 l 2.92239,-0.0574 z"
       style="fill:#ffffff;fill-opacity:1;stroke-width:1.14532"
       id="path1-8" /><path
       d="m 387.06519,139.15185 c 0.33141,-0.22822 0.72709,-0.57976 0.87932,-0.78078 l 0.2768,-0.36553 0.88933,0.78078 0.8893,0.78085 1.27099,-0.006 1.27099,-0.006 0.97482,-0.54962 0.97483,-0.54966 0.79205,-1.17986 c 0.43561,-0.64889 0.79203,-1.44161 0.79203,-1.76156 v -0.58174 h -0.47596 -0.47603 l -0.46714,1.03579 c -0.25704,0.56966 -0.79331,1.34144 -1.19191,1.71514 l -0.72475,0.6793 -0.84865,0.13765 -0.84858,0.13797 -0.40798,-0.40796 -0.40799,-0.40796 v -0.84984 c 0,-0.99798 1.30913,-6.442 1.8209,-7.57223 0.19426,-0.4291 0.63096,-0.96211 0.97037,-1.18453 l 0.61712,-0.40432 0.63511,0.15938 0.63508,0.15938 -0.63331,0.58695 -0.63334,0.58696 v 0.74797 0.74799 l 0.63197,0.28785 0.63195,0.28783 0.64748,-0.3629 c 0.35613,-0.19985 0.79208,-0.66366 0.96876,-1.03125 l 0.3213,-0.66825 -0.27273,-0.82607 c -0.15001,-0.45436 -0.53739,-0.99958 -0.86098,-1.21162 l -0.58841,-0.38554 h -1.09676 -1.09681 l -0.87094,0.76472 -0.87098,0.76471 -0.29511,-0.3635 c -0.1625,-0.20006 -0.56631,-0.54404 -0.89768,-0.7647 l -0.6026,-0.40123 h -1.20382 -1.20379 l -1.05858,0.62036 -1.05861,0.62039 -0.72739,1.26833 c -0.40012,0.69762 -0.7285,1.46029 -0.72975,1.69488 l -0.002,0.4265 h 0.4894 0.48939 l 0.38877,-0.97175 c 0.46317,-1.1575 1.72291,-2.33085 2.74305,-2.55489 l 0.73497,-0.1614 0.50168,0.26864 0.50173,0.26868 v 0.98047 c 0,1.03096 -1.25543,6.32161 -1.82155,7.67653 -0.18197,0.43586 -0.61365,0.97762 -0.95897,1.20389 l -0.62784,0.41137 -0.61741,-0.15486 -0.61737,-0.15485 0.64605,-0.55575 0.64612,-0.55571 v -0.69851 -0.69849 l -0.45699,-0.33453 -0.45695,-0.33449 -0.60925,0.14313 c -0.33511,0.0785 -0.8012,0.36992 -1.03574,0.64715 l -0.42649,0.504 0.009,0.8869 c 0.011,1.44669 0.88908,2.20728 2.5579,2.2199 l 0.98148,0.009 z m -6.58684,-0.0393 c 0,-0.26836 -9.24054,-19.29923 -9.57748,-19.72461 l -0.25122,-0.31709 -0.71357,0.0734 -0.71359,0.0734 -4.8515,9.96759 c -2.66834,5.48214 -4.85151,10.00595 -4.85151,10.0529 0,0.0471 4.71573,0.0851 10.47939,0.0851 h 10.47939 z M 365.5403,129.8798 c 1.8182,-3.7196 3.3919,-6.85827 3.49714,-6.97485 l 0.19136,-0.21192 3.30957,6.76951 c 1.82029,3.72322 3.30961,6.86192 3.30961,6.97486 v 0.20565 h -6.80677 -6.8067 z"
       style="fill:#ffffff;fill-opacity:1;stroke-width:1.34264"
       id="path1-0" /><path
       d="m 532.07799,4.7561311 1.53001,-0.4543852 1.55051,-1.3940009 1.55049,-1.3940901 0.72379,-1.42833579 0.72383,-1.42833581 1.84262,-7.4200505 1.84259,-7.4200488 -0.36299,-0.437374 c -0.47797,-0.57592 -1.63077,-0.557523 -2.2238,0.03554 -0.26023,0.26022 -0.47288,0.535707 -0.47288,0.612425 0,0.07668 -0.61206,2.538445 -1.36015,5.470403 l -1.36015,5.3307834 -1.03255,0.9685869 c -0.5679,0.5327111 -1.39863,1.0604606 -1.8461,1.1727867 l -0.81357,0.2043141 -0.48007,-0.29954 c -0.26399,-0.1649705 -0.65444,-0.6247868 -0.86758,-1.0223261 l -0.38756,-0.7227846 0.17235,-1.43046 c 0.0948,-0.7867164 0.64157,-2.7784787 1.2151,-4.4261044 0.57349,-1.647626 1.04273,-3.417951 1.04273,-3.934076 v -0.938432 l -0.87961,-0.879641 -0.87964,-0.87962 h -1.37646 -1.3764 l -1.16859,1.055767 -1.16858,1.055699 -0.65005,1.51109 c -0.68226,1.585929 -0.62785,2.095013 0.22387,2.095013 h 0.51302 l 0.78333,-1.77236 0.78335,-1.772381 0.79,-0.517646 0.79003,-0.517623 0.45371,0.173912 c 0.67558,0.259348 0.57173,0.926718 -0.75004,4.820179 l -1.20364,3.5457922 v 1.7859059 1.7859513 l 1.00962,1.1016797 1.00959,1.1017033 1.80095,0.130551 1.8009,0.1305511 0.97819,-0.5058658 0.97823,-0.5058423 -0.20521,0.6988892 c -0.6096,2.07312919 -1.74231,3.7989262 -3.27487,4.9896422 l -0.86807,0.6744794 -1.23836,-0.00673 c -0.68111,-0.00219 -1.42589,-0.1231679 -1.65516,-0.2686683 l -0.41682,-0.2639975 0.6569,-0.3515571 c 0.3613,-0.1933598 0.78946,-0.7001407 0.95144,-1.1261804 l 0.29453,-0.77464675 -0.46634,-0.71165342 -0.46632,-0.71174257 h -0.75904 -0.75906 l -0.73862,0.7386568 -0.73862,0.7386349 V 1.9685188 c 0,1.2513834 0.70172,2.2779783 1.91938,2.8078957 1.23706,0.5384567 2.45,0.5322654 4.31615,-0.020116 z"
       style="fill:#fefefe;fill-opacity:1;stroke-width:1.65785"
       id="path1-1" /><path
       d="m 112.99572,-287.26615 1.53002,-0.45438 1.55051,-1.394 1.55048,-1.39409 0.72379,-1.42834 0.72382,-1.42834 1.84263,-7.42005 1.8426,-7.42006 -0.363,-0.43737 c -0.47797,-0.57592 -1.63076,-0.55751 -2.2238,0.0355 -0.26022,0.26022 -0.47288,0.5357 -0.47288,0.61243 0,0.0768 -0.61206,2.53845 -1.36016,5.47041 l -1.36015,5.33077 -1.03254,0.96858 c -0.5679,0.53271 -1.39863,1.06048 -1.84609,1.1728 l -0.81358,0.20439 -0.48005,-0.29953 c -0.264,-0.16485 -0.65445,-0.62479 -0.8676,-1.02233 l -0.38754,-0.72278 0.17241,-1.43046 c 0.0948,-0.78671 0.64157,-2.77849 1.2151,-4.42611 0.57348,-1.64763 1.04272,-3.41794 1.04272,-3.93409 v -0.93841 l -0.87961,-0.87963 -0.87963,-0.87964 h -1.37647 -1.37641 l -1.16858,1.05577 -1.16858,1.05572 -0.65006,1.51108 c -0.68225,1.58591 -0.62784,2.09499 0.22388,2.09499 h 0.51303 l 0.7833,-1.77235 0.78337,-1.77237 0.79,-0.51766 0.79002,-0.51762 0.45372,0.17387 c 0.67558,0.25935 0.57173,0.92673 -0.75002,4.82019 l -1.20367,3.54578 v 1.7859 1.78596 l 1.00962,1.10168 1.0096,1.10171 1.80094,0.13056 1.8009,0.13055 0.9782,-0.50585 0.97823,-0.50585 -0.20527,0.69888 c -0.60962,2.07313 -1.74232,3.79893 -3.27486,4.98964 l -0.8681,0.67449 -1.23836,-0.006 c -0.68111,-0.002 -1.4259,-0.12328 -1.65515,-0.26866 l -0.41682,-0.264 0.65689,-0.35157 c 0.36132,-0.19336 0.78947,-0.70013 0.95145,-1.12616 l 0.29454,-0.77465 -0.46634,-0.71167 -0.46633,-0.71172 h -0.75903 -0.75907 l -0.73862,0.73865 -0.73862,0.73862 v 0.99995 c 0,1.25138 0.70173,2.27799 1.91939,2.80791 1.23705,0.53844 2.45,0.53225 4.31615,-0.0203 z"
       style="fill:#fefefe;fill-opacity:1;stroke-width:1.65785"
       id="path1-1-0" /><path
       d="m 537.94177,-156.59973 1.32256,-0.39274 1.34024,-1.20498 1.34027,-1.20505 0.62563,-1.23467 0.62568,-1.23467 1.59278,-6.41394 1.59278,-6.41391 -0.3138,-0.37806 c -0.41316,-0.49785 -1.40964,-0.48195 -1.92226,0.0305 -0.22475,0.22475 -0.40873,0.46302 -0.40873,0.52937 0,0.0663 -0.52912,2.19423 -1.17577,4.72864 l -1.17573,4.60798 -0.89247,0.83721 c -0.49092,0.46049 -1.20905,0.91668 -1.59582,1.01379 l -0.70325,0.17648 -0.41495,-0.25877 c -0.22825,-0.14245 -0.56573,-0.5401 -0.74997,-0.88373 l -0.33499,-0.62477 0.14891,-1.2365 c 0.082,-0.68003 0.55457,-2.40174 1.05031,-3.82595 0.49577,-1.42421 0.90134,-2.95451 0.90134,-3.40064 v -0.81119 l -0.76033,-0.76034 -0.76034,-0.76037 h -1.18985 -1.18977 l -1.01014,0.91264 -1.01012,0.91255 -0.56191,1.30619 c -0.58974,1.37089 -0.54271,1.81094 0.19358,1.81094 h 0.44346 l 0.67716,-1.53208 0.67709,-1.53205 0.68288,-0.44744 0.68289,-0.44746 0.3922,0.15061 c 0.58404,0.22416 0.49423,0.80107 -0.64827,4.16662 l -1.0405,3.06497 v 1.54379 1.54379 l 0.87274,0.9523 0.87273,0.95229 1.5567,0.11281 1.55671,0.11282 0.84558,-0.43726 0.84557,-0.43723 -0.17771,0.60409 c -0.52697,1.79201 -1.50609,3.28382 -2.8308,4.31304 l -0.75042,0.58304 -1.07042,-0.003 c -0.58875,-0.002 -1.23257,-0.10671 -1.43073,-0.23202 l -0.36029,-0.22823 0.56783,-0.3039 c 0.3123,-0.16718 0.68238,-0.60519 0.82241,-0.97348 l 0.25471,-0.66963 -0.4031,-0.61517 -0.40309,-0.6152 h -0.65615 -0.6561 l -0.63848,0.63849 -0.63849,0.63846 v 0.86437 c 0,1.0817 0.60661,1.9691 1.65914,2.42721 1.06931,0.46537 2.11782,0.46005 3.73089,-0.0203 z m -8.87351,-7.73604 c -0.47799,-1.03722 -2.83516,-5.89495 -5.23812,-10.79496 l -4.36905,-8.9091 h -0.82046 -0.82047 l -5.11996,10.5387 c -2.81599,5.7963 -5.12,10.65403 -5.12,10.79496 v 0.25615 h 11.17862 11.17857 z m -18.55217,-1.30061 c 0.52996,-1.32311 7.06637,-14.49818 7.18645,-14.48524 0.14704,0.0145 2.206,4.16409 5.64023,11.36384 l 1.64399,3.44658 h -7.30042 -7.30046 z"
       style="fill:#ffffff;fill-opacity:1;stroke-width:1.43306"
       id="path1-01" /><path
       d="m 470.03999,-89.927224 c 0.25558,-0.805762 -0.0494,-1.116779 -1.09589,-1.116779 h -0.92451 l -0.36913,-0.444787 -0.36911,-0.444762 2.06815,-8.324838 c 1.13753,-4.57867 2.14685,-8.23348 2.24302,-8.12184 0.0964,0.11166 1.96761,4.43412 4.15871,9.605393 l 3.98387,9.402364 h 0.60958 0.60963 l 2.44878,-9.680961 c 1.34682,-5.324506 2.60935,-9.852996 2.80564,-10.063316 0.19627,-0.21022 1.02655,-0.5326 1.84504,-0.71624 l 1.48815,-0.33386 0.089,-0.60706 0.089,-0.60706 h -4.0589 -4.05889 v 0.4179 c 0,0.22969 0.0109,0.51192 0.0297,0.62682 0.0156,0.11515 0.54914,0.33431 1.18399,0.48756 l 1.15426,0.27854 0.0931,0.65806 c 0.10262,0.72577 -3.04458,13.705886 -3.28694,13.556093 -0.0832,-0.05146 -1.65513,-3.679092 -3.49327,-8.061503 l -3.34205,-7.96809 -3.34306,0.0718 -3.34305,0.0721 -0.089,0.6268 -0.089,0.62683 h 1.39586 c 0.76772,0 1.4575,0.0997 1.53276,0.22154 0.0754,0.12212 -0.85029,4.16409 -2.05685,8.98278 l -2.1938,8.761282 -0.60411,0.489186 -0.60416,0.489216 -0.87453,0.0058 c -0.48098,0.0025 -1.00906,0.09653 -1.17344,0.209052 -0.38856,0.266036 -0.68481,1.078215 -0.47124,1.291781 0.0917,0.09165 1.89232,0.166537 4.00156,0.166537 h 3.83501 z"
       style="fill:#ffffff;fill-opacity:1;stroke-width:1.5348"
       id="path1-2" /><path
       d="m 365.20047,-309.00459 1.19826,-0.86802 0.87771,-1.53047 c 1.02013,-1.77883 1.0916,-2.25728 0.33716,-2.25728 h -0.54595 l -0.98032,1.61948 -0.98037,1.6195 -0.90651,0.56095 c -1.19204,0.73769 -1.80074,0.70821 -2.17137,-0.10527 l -0.30347,-0.66612 1.05173,-4.20353 c 0.57852,-2.31194 1.1808,-4.69415 1.33849,-5.29377 l 0.28667,-1.09022 h 1.67496 1.67503 l 0.34887,-0.34889 c 0.19179,-0.19188 0.34887,-0.58435 0.34887,-0.87217 v -0.5233 h -1.74434 c -0.95943,0 -1.74649,-0.0982 -1.74908,-0.21807 -0.006,-0.11997 0.28814,-1.44147 0.64582,-2.93679 l 0.65046,-2.71875 -0.55599,-0.40654 c -0.74755,-0.54662 -1.21166,-0.51196 -1.86273,0.13922 l -0.54563,0.54566 -0.67157,2.78564 -0.67153,2.78564 -1.9081,0.0848 -1.90809,0.0848 v 0.72682 0.72681 l 1.68653,0.0876 1.68651,0.0876 -0.14735,0.49382 c -0.63838,2.14021 -2.20821,8.90137 -2.20821,9.51065 0,0.95236 0.46603,1.88212 1.26962,2.53306 l 0.62013,0.50231 1.48269,0.006 1.48268,0.006 z"
       style="fill:#ffffff;fill-opacity:1;stroke-width:1.60167"
       id="path1-00" /></g></svg>
